<svg width="30" height="40" viewBox="0 0 30 29" fill="none" xmlns="http://www.w3.org/2000/svg">
<path fill-rule="evenodd" clip-rule="evenodd" d="M0 23.75C0 19.4075 2.76802 15.7113 6.63593 14.33C7.6872 13.9545 8.81972 13.75 10 13.75C11.1803 13.75 12.3128 13.9545 13.364 14.33C13.9352 14.5338 14.4822 14.7883 15 15.0878C15.5178 14.7883 16.0648 14.5338 16.636 14.33C17.6872 13.9545 18.8197 13.75 20 13.75C21.1803 13.75 22.3128 13.9545 23.364 14.33C27.232 15.7113 30 19.4075 30 23.75V28.75H21.25V26.25H27.5V23.75C27.5 19.6078 24.1422 16.25 20 16.25C19.0048 16.25 18.055 16.4438 17.186 16.7958C18.928 18.5955 20 21.0475 20 23.75V28.75H0V23.75ZM10 12.5C8.85173 12.5 7.7758 12.1903 6.85113 11.65C4.99617 10.566 3.75 8.55352 3.75 6.25C3.75 2.79822 6.54822 0 10 0C12.0445 0 13.8597 0.981683 15 2.49938C16.1403 0.981683 17.9555 0 20 0C23.4518 0 26.25 2.79822 26.25 6.25C26.25 8.55352 25.0038 10.566 23.1488 11.65C22.2242 12.1903 21.1483 12.5 20 12.5C18.8517 12.5 17.7758 12.1903 16.8512 11.65C16.1293 11.2282 15.4998 10.6658 15 10.0006C14.5002 10.666 13.8707 11.2282 13.1488 11.65C12.2242 12.1903 11.1483 12.5 10 12.5ZM17.5 23.75V26.25H2.5V23.75C2.5 19.6078 5.85787 16.25 10 16.25C14.1422 16.25 17.5 19.6078 17.5 23.75ZM13.75 6.25C13.75 8.32107 12.071 10 10 10C7.92893 10 6.25 8.32107 6.25 6.25C6.25 4.17893 7.92893 2.5 10 2.5C12.071 2.5 13.75 4.17893 13.75 6.25ZM20 2.5C17.929 2.5 16.25 4.17893 16.25 6.25C16.25 8.32107 17.929 10 20 10C22.071 10 23.75 8.32107 23.75 6.25C23.75 4.17893 22.071 2.5 20 2.5Z" fill="#080341"/>
</svg>
