<svg width="40" height="40" viewBox="0 0 40 40" fill="none" xmlns="http://www.w3.org/2000/svg">
<g clip-path="url(#clip0_33_141)">
<path d="M20 8.33337C24.3195 8.33337 28.3102 9.10819 31.2835 10.4296C32.768 11.0894 34.0725 11.9182 35.0285 12.9228C35.9124 13.8514 36.5524 14.9944 36.6529 16.3051L36.6667 16.6667V23.3334C36.6667 24.7962 35.9927 26.0642 35.0285 27.0774C34.0725 28.0819 32.768 28.9107 31.2835 29.5704C28.3102 30.8919 24.3195 31.6667 20 31.6667C15.6805 31.6667 11.6898 30.8919 8.71654 29.5704C7.23201 28.9107 5.92746 28.0819 4.97149 27.0774C4.08769 26.1486 3.44772 25.0058 3.34719 23.695L3.33337 23.3334V16.6667C3.33337 15.2039 4.00734 13.9359 4.97149 12.9228C5.92746 11.9182 7.23201 11.0894 8.71654 10.4296C11.6898 9.10819 15.6805 8.33337 20 8.33337ZM33.3334 21.8002C32.7077 22.2099 32.0175 22.5775 31.2835 22.9037C28.3102 24.2252 24.3195 25 20 25C15.6805 25 11.6898 24.2252 8.71654 22.9037C7.98246 22.5775 7.29239 22.2099 6.66671 21.8002V23.3334C6.66671 23.7115 6.83221 24.1974 7.38614 24.7794C7.94824 25.37 8.84041 25.9777 10.0703 26.5244C12.526 27.6159 16.0353 28.3334 20 28.3334C23.9649 28.3334 27.474 27.6159 29.9297 26.5244C31.1597 25.9777 32.0519 25.37 32.6139 24.7794C33.1679 24.1974 33.3334 23.7115 33.3334 23.3334V21.8002Z" fill="#09244B"/>
</g>
<defs>
<clipPath id="clip0_33_141">
<rect width="40" height="40" fill="white"/>
</clipPath>
</defs>
</svg>
