<svg width="30" height="40" viewBox="0 0 30 32" fill="none" xmlns="http://www.w3.org/2000/svg">
<path d="M15 0C18.8562 0 22.427 0.680534 25.0962 1.84828C26.4282 2.43107 27.6108 3.16805 28.4838 4.07097C29.2911 4.90599 29.8924 5.95135 29.987 7.16489L30 7.5V24.1667C30 25.5235 29.3645 26.6848 28.4838 27.5957C27.6108 28.4987 26.4282 29.2357 25.0962 29.8183C22.427 30.9862 18.8562 31.6667 15 31.6667C11.1438 31.6667 7.57302 30.9862 4.90388 29.8183C3.57178 29.2357 2.38913 28.4987 1.51622 27.5957C0.708939 26.7607 0.107627 25.7153 0.0130149 24.5018L0 24.1667V7.5C0 6.14315 0.63555 4.9819 1.51622 4.07097C2.38913 3.16805 3.57178 2.43107 4.90388 1.84828C7.57302 0.680534 11.1438 0 15 0ZM26.6667 20.6785C26.1765 20.9745 25.6492 21.243 25.0962 21.485C22.427 22.6528 18.8562 23.3333 15 23.3333C11.1438 23.3333 7.57302 22.6528 4.90388 21.485C4.35077 21.243 3.82343 20.9745 3.33333 20.6785V24.1667C3.33333 24.4207 3.44397 24.794 3.91272 25.2788C4.38922 25.7717 5.15918 26.2917 6.23993 26.7645C8.39652 27.708 11.4924 28.3333 15 28.3333C18.5077 28.3333 21.6035 27.708 23.76 26.7645C24.8408 26.2917 25.6108 25.7717 26.0873 25.2788C26.556 24.794 26.6667 24.4207 26.6667 24.1667V20.6785ZM26.6667 12.3452C26.1765 12.6412 25.6492 12.9097 25.0962 13.1517C22.427 14.3195 18.8562 15 15 15C11.1438 15 7.57302 14.3195 4.90388 13.1517C4.35077 12.9097 3.82343 12.6412 3.33333 12.3452V15.8333C3.33333 16.0873 3.44397 16.4607 3.91272 16.9455C4.38922 17.4383 5.15918 17.9583 6.23993 18.4312C8.39652 19.3747 11.4924 20 15 20C18.5077 20 21.6035 19.3747 23.76 18.4312C24.8408 17.9583 25.6108 17.4383 26.0873 16.9455C26.556 16.4607 26.6667 16.0873 26.6667 15.8333V12.3452ZM15 3.33333C11.4924 3.33333 8.39652 3.95863 6.23993 4.90213C5.15918 5.37497 4.38922 5.89497 3.91272 6.38783C3.44397 6.8727 3.33333 7.24603 3.33333 7.5C3.33333 7.75397 3.44397 8.1273 3.91272 8.61217C4.38922 9.10503 5.15918 9.62503 6.23993 10.0979C8.39652 11.0414 11.4924 11.6667 15 11.6667C18.5077 11.6667 21.6035 11.0414 23.76 10.0979C24.8408 9.62503 25.6108 9.10503 26.0873 8.61217C26.556 8.1273 26.6667 7.75397 26.6667 7.5C26.6667 7.24603 26.556 6.8727 26.0873 6.38783C25.6108 5.89497 24.8408 5.37497 23.76 4.90213C21.6035 3.95863 18.5077 3.33333 15 3.33333Z" fill="#09244B"/>
</svg>
