<?xml version="1.0" ?><svg height="32" id="svg5" version="1.1" viewBox="0 0 32 32" width="32" xmlns="http://www.w3.org/2000/svg" xmlns:svg="http://www.w3.org/2000/svg"><defs id="defs2"/><g id="layer1" transform="translate(-108,-484)"><path d="m 113,488 c -1.6447,0 -3,1.3553 -3,3 v 18 c 0,1.6447 1.3553,3 3,3 h 7.17773 c 0.41652,1.15894 1.52814,2 2.82227,2 h 10 c 1.6447,0 3,-1.3553 3,-3 v -14 c 0,-1.6447 -1.3553,-3 -3,-3 h -4 v -3 c 0,-1.6447 -1.3553,-3 -3,-3 h -1 v 2 h 1 c 0.5713,0 1,0.4287 1,1 v 3 h -4 c -1.6447,0 -3,1.3553 -3,3 v 13 h -7 c -0.5713,0 -1,-0.4287 -1,-1 v -18 c 0,-0.5713 0.4287,-1 1,-1 h 1 v -2 z m 10,8 h 10 c 0.5713,0 1,0.4287 1,1 v 14 c 0,0.5713 -0.4287,1 -1,1 h -10 c -0.5713,0 -1,-0.4287 -1,-1 v -14 c 0,-0.5713 0.4287,-1 1,-1 z" id="rect27397" style="color:#000000;fill:#002cba;fill-opacity:1;fill-rule:evenodd;stroke-linecap:round;stroke-linejoin:round;stroke-miterlimit:4.1;-inkscape-stroke:none"/><path d="m 116,486 c -1.0907,0 -2,0.9093 -2,2 v 2 c 0,1.0907 0.9093,2 2,2 h 7 c 1.0907,0 2,-0.9093 2,-2 v -2 c 0,-1.0907 -0.9093,-2 -2,-2 z m 0,2 h 7 v 2 h -7 z" id="rect27399" style="color:#000000;fill:#00c89f;fill-opacity:1;fill-rule:evenodd;stroke-linecap:round;stroke-linejoin:round;stroke-miterlimit:4.1;-inkscape-stroke:none"/><path d="m 125,498 a 1,1 0 0 0 -1,1 1,1 0 0 0 1,1 h 6 a 1,1 0 0 0 1,-1 1,1 0 0 0 -1,-1 z" id="path27439" style="color:#000000;fill:#00c89f;fill-opacity:1;fill-rule:evenodd;stroke-linecap:round;stroke-linejoin:round;stroke-miterlimit:4.1;-inkscape-stroke:none"/><path d="m 125,501 a 1,1 0 0 0 -1,1 1,1 0 0 0 1,1 h 6 a 1,1 0 0 0 1,-1 1,1 0 0 0 -1,-1 z" id="path27441" style="color:#000000;fill:#00c89f;fill-opacity:1;fill-rule:evenodd;stroke-linecap:round;stroke-linejoin:round;stroke-miterlimit:4.1;-inkscape-stroke:none"/><path d="m 125,504 a 1,1 0 0 0 -1,1 1,1 0 0 0 1,1 h 6 a 1,1 0 0 0 1,-1 1,1 0 0 0 -1,-1 z" id="path27443" style="color:#000000;fill:#00c89f;fill-opacity:1;fill-rule:evenodd;stroke-linecap:round;stroke-linejoin:round;stroke-miterlimit:4.1;-inkscape-stroke:none"/><path d="m 125,507 a 1,1 0 0 0 -1,1 1,1 0 0 0 1,1 h 6 a 1,1 0 0 0 1,-1 1,1 0 0 0 -1,-1 z" id="path27445" style="color:#000000;fill:#00c89f;fill-opacity:1;fill-rule:evenodd;stroke-linecap:round;stroke-linejoin:round;stroke-miterlimit:4.1;-inkscape-stroke:none"/></g></svg>